<mxfile host="app.diagrams.net" modified="2023-06-27T14:11:05.611Z" agent="Mozilla/5.0 (Windows NT 10.0; Win64; x64; rv:109.0) Gecko/20100101 Firefox/114.0" version="21.5.1" etag="2XfZDsZa4wWFCZ8v7Y8Z" type="github">
  <diagram name="PÃ¡gina-1" id="mVXm6_eINW-f7F0wy_WT">
    <mxGraphModel>
      <root>
        <mxCell id="0" />
        <mxCell id="1" parent="0" />
      </root>
    </mxGraphModel>
  </diagram>
</mxfile>
